<?xml version="1.0" standalone="no"?>
<!DOCTYPE svg PUBLIC "-//W3C//DTD SVG 1.0//EN" "http://www.w3.org/TR/2001/REC-SVG-20010904/DTD/svg10.dtd">
<svg xmlns="http://www.w3.org/2000/svg" xmlns:xlink="http://www.w3.org/1999/xlink" id="body_1" width="100" height="100">

<g transform="matrix(0.5187906 0 0 0.5187906 0 0)">
    <path d="M0 0L192.756 0L192.756 192.756L0 192.756L0 0z" stroke="none" fill="none" />
    <path d="M58.328 69.928L20.506 69.928L20.506 81.517L32.788002 81.517L32.788002 115.725L44.511 115.725L44.511 81.656L58.328003 81.656L58.328003 69.928L58.328 69.928z" stroke="none" fill="#000000" fill-rule="nonzero" />
    <path d="M69.074 69.928L58.188 99.527L58.188 84.309L46.744 84.309L46.744 115.725L64.608 115.725L81.634 69.92799L69.074005 69.92799L69.074 69.928z" stroke="none" fill="#000000" fill-rule="nonzero" />
    <path d="M58.188 69.928L20.367 69.928L20.367 81.656L32.369 81.656L32.369 115.725L44.372 115.725L44.372 81.517L58.188004 81.517L58.188004 69.928L58.188 69.928z" stroke="none" fill="#000000" fill-rule="nonzero" />
    <path d="M69.772 69.928L58.188 99.947L58.188 84.588L46.325 84.588L46.325 115.725L64.468 115.725L81.495 69.92799L69.772 69.92799L69.772 69.928z" stroke="none" fill="#000000" fill-rule="nonzero" />
    <path d="M57.211 68.951L19.529 68.951L19.529 80.67899L31.810999 80.67899L31.810999 114.745995L43.394997 114.745995L43.394997 80.679L57.211 80.679L57.211 68.951z" stroke="none" fill="#CC2229" fill-rule="nonzero" />
    <path d="M68.097 68.951L57.211 98.550995L57.211 83.192L45.627 83.192L45.627 114.746L63.770996 114.746L80.797 68.951004L68.097 68.951004L68.097 68.951z" stroke="none" fill="#CC2229" fill-rule="nonzero" />
    <path d="M160.207 79.841C 159.51 80.819 158.254 81.37701 157.695 81.37701C 156.998 81.37701 155.88101 80.95801 155.742 79.562004C 155.742 79.003006 156.58 77.328 158.115 76.630005C 158.81201 76.212006 159.789 76.07201 160.48601 76.630005C 161.04501 77.049 160.906 78.864006 160.207 79.841zM183.654 85.566C 183.095 86.543 181.98001 88.079 177.931 92.128C 173.745 96.316 169.27899 97.852 166.07 97.852C 162.85901 97.713 161.324 96.596 160.48601 95.34C 159.091 93.524994 159.23001 91.431 159.23001 91.431C 159.23001 91.431 158.115 93.385 156.99802 94.782C 155.88101 96.318 153.92801 97.853 151.27501 97.575C 149.04301 97.155 148.205 94.782 148.76302 91.57C 149.04202 90.453 150.15901 88.498 150.01901 88.638C 149.88 88.638 148.48401 88.917 147.50702 88.917C 146.66902 88.917 145.55402 88.498 145.55402 88.498C 145.55402 88.498 145.27501 89.615 144.85501 90.313C 143.878 92.547005 143.18102 94.083 142.06401 95.758C 139.69101 99.388 136.48201 101.623 133.97002 101.482C 131.45802 101.343 130.48001 98.55 130.34102 96.734C 130.34102 95.618004 130.90002 93.384 131.31802 92.406C 131.73602 91.15 132.01503 90.730995 132.01503 90.730995C 132.01503 90.730995 130.62003 91.009995 129.78304 91.28999C 129.22403 91.42999 127.83003 91.42999 127.83003 91.42999L127.83003 91.42999L127.83003 93.104996C 127.68903 94.362 127.410034 96.036995 125.87503 98.968994C 123.92203 102.04099 121.27003 103.297 119.59603 103.158C 117.78203 103.158 115.40803 101.902 115.12903 99.10899C 114.85003 96.036995 117.08403 90.451996 119.87503 88.63699C 120.85203 88.077995 121.82803 87.938995 121.82803 87.938995C 121.82803 87.52 122.66603 85.84499 122.94503 85.704994C 123.78303 85.425995 126.85103 85.98399 127.83003 87.798996C 127.83003 87.798996 128.94504 87.659996 129.64403 87.52C 131.17903 86.961 132.57402 85.84499 134.24902 85.285995C 135.78403 84.727 136.89902 84.727 138.15503 85.564995C 139.13403 86.12399 139.55103 86.68199 138.15503 88.216995C 137.59802 88.77599 136.62003 90.590996 136.20203 92.405C 135.64302 94.5 135.92302 95.895996 135.92302 95.895996C 135.92302 95.895996 136.76102 95.478 137.73701 94.22099C 139.27202 92.26599 140.52802 89.89299 140.94801 88.076996C 141.36601 86.68099 142.06302 84.028 142.62201 83.46999C 143.18102 82.911995 144.854 83.60999 145.97202 84.02899C 147.08902 84.58799 146.25102 85.424995 147.64601 85.98399C 148.62502 86.26299 150.16 85.424995 150.99602 85.006C 151.83401 84.447 152.81001 83.190994 153.92802 83.050995C 154.90503 82.910995 156.02202 83.329994 156.85802 83.74899C 157.69601 84.16799 157.69601 85.145 157.13702 85.982994C 156.71902 86.81999 155.18402 89.33399 154.34602 90.59C 153.51003 92.126 153.64902 92.964 153.64902 92.964C 154.20802 92.824 156.02202 91.708 156.58102 91.288994C 157.55803 90.590996 159.23102 88.774994 159.23102 88.774994C 159.93002 86.12299 160.76602 84.02799 162.86002 81.65399C 164.39502 80.11799 166.76802 78.72199 169.14102 79.69899C 171.65302 80.67699 171.79102 83.32899 170.81502 85.70299C 169.69801 88.21599 166.76802 89.192986 165.23302 89.332985C 163.83702 89.611984 163.13902 89.332985 163.13902 89.332985C 163.13902 89.332985 162.86002 89.75198 162.86002 90.72899C 162.86002 91.70599 163.00102 93.66099 164.25601 94.21899C 165.51201 94.916985 168.16202 94.637985 171.37302 92.82298C 174.44302 91.14698 180.72302 85.56298 181.70102 84.584984C 182.81602 83.60699 183.37502 82.90998 183.79301 82.90998C 184.21301 82.91298 184.63101 83.74998 183.654 85.56598zM112.758 101.623C 111.64101 102.879 110.385 104.275 108.709 105.531C 107.173996 106.647995 105.779 107.486 104.244 107.486C 102.43 107.345 101.871 106.09 101.592 105.113C 101.453 104.275 101.731 102.459 102.43 100.365C 103.266 98.270996 103.965004 97.295 104.803 95.339C 105.5 93.80299 106.198 92.406 106.338005 91.569C 106.338005 91.569 105.77901 91.569 104.803 92.406C 103.965004 92.965 102.289 94.501 101.313 95.478C 98.801 97.991 96.289 101.201996 93.219 105.81C 92.102005 107.624 91.265 109.72 90.149 110.279C 88.614 110.976 86.66 109.859 86.241005 109.441C 85.68301 108.603004 85.54401 107.625 86.102005 106.23C 86.66 104.972 89.591 98.55 90.289 97.29401C 90.987 95.897 92.382 92.825005 92.801 91.98701C 93.22 90.87001 93.499 90.032005 93.639 89.33401C 93.639 89.33401 93.36 89.47401 92.941 90.032005C 92.382 90.451004 89.452 92.964005 86.521 96.454C 79.403 104.691 73.96001 114.744 73.123 114.885C 72.286 115.024 71.449 114.744 70.611 114.186005C 69.634 113.768005 68.657 113.20901 69.355 111.952C 69.913 110.69601 72.984 105.671005 74.100006 103.575005C 75.356 101.343 78.98501 95.338005 80.520004 91.84701C 81.497 90.032005 82.05501 88.91501 82.61301 87.659004C 82.753006 87.380005 83.73 85.006004 84.00901 83.61C 84.00901 83.47 82.05501 84.727 78.42601 88.497C 77.58901 89.614 72.98401 94.082 72.28501 94.92C 71.44801 95.896996 67.54001 100.505 66.56301 101.761C 65.585014 103.017 63.492012 105.671005 61.818012 108.044C 60.56201 109.72 60.282013 109.999 58.887012 109.999C 58.05001 109.999 57.631012 109.858 57.073013 109.579C 56.514015 109.44 56.514015 108.882 56.933014 108.044C 58.189014 105.81 60.003014 103.575 62.236015 100.784C 64.46902 97.85 70.05102 91.56799 72.70302 88.91499C 75.21502 86.26199 81.77402 79.84 83.72802 78.44299C 85.54202 76.90699 87.35602 75.92999 88.61302 75.510994C 90.009026 75.231995 90.427025 75.65099 90.84602 76.06999C 91.12502 76.34899 91.54402 76.62799 91.40402 77.744995C 91.26402 78.86199 90.84602 80.95599 89.59002 83.468994C 88.47402 85.842995 87.35702 88.634995 86.93902 89.47299L86.93902 89.47299L86.66002 90.17099C 87.63702 89.47299 90.01002 86.54099 91.68402 84.86499C 93.359024 83.18899 94.61502 81.79399 96.56902 80.39699C 98.661026 79.139984 99.64002 78.721985 100.47602 78.721985C 101.45502 78.721985 102.43102 79.27998 102.57002 80.53699C 102.71102 81.79399 102.43102 82.91099 101.732025 84.306984C 101.314026 85.56398 99.220024 89.75198 98.662025 90.72998C 98.10503 91.98598 97.68503 92.96398 97.54703 93.52198L97.54703 93.52198L98.524025 92.68498C 99.22102 91.986984 102.15302 88.77498 104.80502 86.680984C 107.455025 84.72598 108.85202 83.608986 110.526024 83.05099C 112.20203 82.49199 113.59602 82.21299 114.43402 83.05099C 115.13102 84.027985 115.41102 85.28499 114.01602 88.07699C 112.62002 90.72999 111.22502 92.68499 110.387024 94.080986C 109.54903 95.61699 108.15302 98.54899 107.73502 99.665985C 107.176025 100.92198 106.897026 102.179985 106.897026 102.179985C 106.897026 102.179985 108.01402 101.48099 108.43203 101.20099C 109.411026 100.50399 109.54903 100.36299 110.80503 99.52499C 112.06103 98.54799 112.89903 97.98998 113.45703 97.57198C 114.15403 97.151985 114.85203 97.292984 114.57203 97.98998C 114.43203 98.82998 113.73403 100.22698 112.758026 101.622986zM165.65 83.75C 164.394 85.007 164.11499 85.984 164.11499 85.984C 165.232 86.124 166.34698 85.565 167.047 84.727005C 167.744 84.02901 168.024 83.052 167.606 82.772C 167.465 82.354004 166.627 82.634 165.65001 83.75zM120.711 93.664C 119.316 96.596 119.875 98.272 120.014 98.272C 120.014 98.272 121.41 98.272 122.526 96.317C 123.643 94.223 123.784004 92.268005 123.364 91.151C 123.225 90.732 121.969 91.43 120.711 93.664z" stroke="none" fill="#000000" fill-rule="nonzero" />
    <path d="M159.51 79.143C 158.81299 80.120995 157.55699 80.679 156.998 80.679C 156.301 80.679 155.184 80.26 155.045 78.864C 155.045 78.306 155.881 76.63 157.416 75.932C 158.115 75.513 159.092 75.373 159.789 75.932C 160.348 76.351 160.207 78.166 159.51 79.143zM182.957 84.868C 182.398 85.84599 181.281 87.381 177.09601 91.42999C 173.04701 95.618 168.582 97.15399 165.371 97.15399C 162.162 97.01499 160.627 95.89699 159.789 94.64099C 158.394 92.82599 158.533 90.731995 158.533 90.731995C 158.533 90.731995 157.416 92.687 156.30101 94.08299C 155.184 95.618996 153.231 97.15499 150.578 96.87499C 148.34601 96.45599 147.508 94.08299 148.06601 90.870995C 148.34502 89.754 149.46101 87.798996 149.322 87.938995C 149.181 87.938995 147.787 88.217995 146.81001 88.217995C 145.97202 88.217995 144.85501 87.798996 144.85501 87.798996C 144.85501 87.798996 144.576 88.91599 144.158 89.614C 143.181 91.848 142.48401 93.383995 141.367 95.059C 138.85501 98.687996 135.785 100.923 133.27101 100.784C 130.75902 100.643 129.783 97.85 129.64401 96.035995C 129.64401 94.919 130.20302 92.685 130.62102 91.70799C 131.03902 90.45099 131.31802 90.03199 131.31802 90.03199C 131.31802 90.03199 129.92302 90.31099 129.08603 90.59099C 128.52702 90.73099 127.13103 90.73099 127.13103 90.73099L127.13103 90.73099L127.13103 92.40599C 126.99203 93.662994 126.71303 95.33899 125.178024 98.27099C 123.22502 101.34299 120.57302 102.59899 118.899025 102.45899C 117.08502 102.45899 114.71102 101.202995 114.43202 98.40999C 114.15302 95.33899 116.385025 89.75399 119.176025 87.93899C 120.15502 87.37999 121.13103 87.24099 121.13103 87.24099C 121.13103 86.82199 121.969025 85.14699 122.246025 85.00699C 123.08402 84.72799 126.15402 85.28599 127.13103 87.10099C 127.13103 87.10099 128.24803 86.96099 128.94502 86.82199C 130.48003 86.26299 131.87703 85.14699 133.55002 84.58799C 135.08502 84.02899 136.20201 84.02899 137.45802 84.86699C 138.43503 85.42599 138.85402 85.983986 137.45802 87.51999C 136.89902 88.07799 135.92302 89.89399 135.50502 91.70899C 134.94601 93.80299 135.22601 95.19899 135.22601 95.19899C 135.22601 95.19899 136.06401 94.77999 137.04001 93.52299C 138.57501 91.567986 139.69 89.194984 140.24901 87.37999C 140.669 85.983986 141.36601 83.33099 141.925 82.77199C 142.48401 82.21399 144.157 82.91199 145.27501 83.330986C 146.39001 83.888985 145.55402 84.72699 146.949 85.28599C 147.92601 85.56499 149.461 84.72699 150.29901 84.30799C 151.13701 83.74899 152.113 82.49299 153.23102 82.35299C 154.20802 82.21299 155.32301 82.63199 156.16101 83.05099C 156.99901 83.46899 156.99901 84.44699 156.44002 85.28499C 156.02202 86.122986 154.48701 88.63599 153.64902 89.89199C 152.81102 91.42799 152.95201 92.26599 152.95201 92.26599C 153.51102 92.12599 155.32301 91.009995 155.882 90.59099C 156.85901 89.89299 158.534 88.07699 158.534 88.07699C 159.231 85.42499 160.069 83.32999 162.163 80.956985C 163.698 79.42098 166.071 78.02499 168.442 79.00198C 170.956 79.97998 171.094 82.63198 170.118 85.00598C 169.00099 87.51898 166.071 88.49598 164.536 88.63598C 163.14 88.91498 162.442 88.63598 162.442 88.63598C 162.442 88.63598 162.163 89.05498 162.163 90.03198C 162.163 91.00899 162.302 92.96398 163.558 93.52198C 164.816 94.21998 167.466 93.94098 170.677 92.12598C 173.74701 90.45097 180.02701 84.865974 181.003 83.88798C 182.12001 82.91098 182.679 82.212975 183.097 82.212975C 183.516 82.21497 183.934 83.05297 182.957 84.86797zM112.059 100.923996C 110.944 102.182 109.686 103.576 108.012 104.834C 106.477 105.951 105.08 106.789 103.545 106.789C 101.730995 106.648 101.173996 105.393 100.895 104.414C 100.754 103.576004 101.034 101.762 101.730995 99.668C 102.56899 97.574 103.266 96.596 104.104 94.641C 104.80299 93.104996 105.5 91.709 105.639 90.871C 105.639 90.871 105.08 90.871 104.104 91.709C 103.266 92.267 101.591995 93.803 100.616 94.78C 98.104 97.294 95.590996 100.505 92.520996 105.113C 91.405 106.927 90.56699 109.020996 89.451 109.58C 87.91599 110.279 85.962 109.162 85.544 108.603004C 84.985 107.90401 84.846 106.789 85.404 105.531006C 85.962 104.27501 88.893 97.851006 89.590996 96.59501C 90.288994 95.199005 91.685 92.12701 92.103 91.29001C 92.520996 90.17301 92.800995 89.33501 92.939995 88.63701C 92.939995 88.63701 92.660995 88.77701 92.103 89.33501C 91.685 89.754005 88.753 92.267006 85.823 95.758C 78.705 103.996 73.262 114.049 72.424995 114.187004C 71.588 114.328 70.74999 114.048004 69.912994 113.490005C 68.936 113.07001 67.95899 112.51101 68.657 111.256004C 69.215 110.00001 72.284996 104.97301 73.402 102.879005C 74.658 100.645004 78.287 94.64101 79.822 91.15001C 80.798996 89.33501 81.357 88.21801 81.915 86.962006C 82.055 86.68301 83.031 84.309006 83.311005 82.91301C 83.311005 82.77301 81.357 84.03001 77.728004 87.79901C 76.89101 88.91601 72.285 93.38401 71.587006 94.22201C 70.75001 95.200005 66.842 99.80601 65.865005 101.06401C 64.88801 102.32001 62.795006 104.97201 61.120007 107.34501C 59.864006 109.02101 59.585007 109.30001 58.189007 109.30001C 57.352005 109.30001 56.933006 109.16101 56.375008 108.88201C 55.81701 108.74101 55.81701 108.183014 56.23501 107.34501C 57.49101 105.11301 59.306007 102.878006 61.53901 100.08501C 63.77201 97.15301 69.35401 90.87001 72.00601 88.21701C 74.51801 85.56501 81.07801 79.14201 83.03101 77.74601C 84.84502 76.21001 86.66001 75.23301 87.916016 74.81401C 89.31202 74.53501 89.73002 74.95401 90.14902 75.37301C 90.42802 75.65201 90.847015 75.93201 90.707016 77.04801C 90.56702 78.16402 90.14902 80.25901 88.89301 82.77201C 87.77602 85.14601 86.66001 87.93901 86.24101 88.77601L86.24101 88.77601L85.96201 89.47401C 86.93901 88.77601 89.31201 85.84401 90.986015 84.16801C 92.66102 82.493004 93.917015 81.09701 95.87102 79.700005C 97.96402 78.44301 98.94102 78.025 99.779015 78.025C 100.75601 78.025 101.73202 78.583 101.87302 79.840004C 102.01202 81.097 101.73202 82.214005 101.03502 83.61C 100.61702 84.867004 98.52302 89.055 97.96502 90.033C 97.40602 91.28999 96.98802 92.267 96.84802 92.825L96.84802 92.825L97.82602 91.987C 98.52302 91.289 101.45502 88.076996 104.10502 85.984C 106.75702 84.029 108.152016 82.912 109.82802 82.354004C 111.50202 81.796005 112.89802 81.517006 113.736015 82.354004C 114.433014 83.332 114.71301 84.588005 113.31602 87.380005C 111.92102 90.033005 110.52502 91.98701 109.68702 93.383C 108.85102 94.91901 107.45502 97.850006 107.03702 98.967C 106.47802 100.225006 106.19902 101.481 106.19902 101.481C 106.19902 101.481 107.31602 100.784004 107.734024 100.504005C 108.71102 99.80501 108.85102 99.66601 110.107025 98.828C 111.36302 97.84901 112.20103 97.293 112.759026 96.873C 113.456024 96.454 114.15402 96.594 113.87402 97.293C 113.734024 98.131 113.03503 99.527 112.05902 100.923996zM164.953 83.05299C 163.697 84.30899 163.418 85.286995 163.418 85.286995C 164.535 85.426994 165.65 84.868 166.34799 84.03C 167.047 83.332 167.327 82.354996 166.907 81.936C 166.76799 81.656 165.93 81.936 164.953 83.05299zM120.01401 92.965996C 118.61901 95.897995 119.17601 97.574 119.31701 97.574C 119.31701 97.574 120.712006 97.574 121.82901 95.618C 122.94601 93.522995 123.08501 91.569 122.66701 90.451996C 122.52501 90.034 121.270004 90.731995 120.01401 92.965996z" stroke="none" fill="#FFFFFF" fill-rule="nonzero" />
    <path d="M159.51 79.143C 158.81299 80.120995 157.55699 80.679 156.998 80.679C 156.301 80.679 155.184 80.26 155.045 78.864C 155.045 78.306 155.881 76.63 157.416 75.932C 158.115 75.513 159.092 75.373 159.789 75.932C 160.348 76.351 160.207 78.166 159.51 79.143zM182.957 84.868C 182.398 85.84599 181.281 87.381 177.09601 91.42999C 173.04701 95.618 168.582 97.15399 165.371 97.15399C 162.162 97.01499 160.627 95.89699 159.789 94.64099C 158.394 92.82599 158.533 90.731995 158.533 90.731995C 158.533 90.731995 157.416 92.687 156.30101 94.08299C 155.184 95.618996 153.231 97.15499 150.578 96.87499C 148.34601 96.45599 147.508 94.08299 148.06601 90.870995C 148.34502 89.754 149.46101 87.798996 149.322 87.938995C 149.181 87.938995 147.787 88.217995 146.81001 88.217995C 145.97202 88.217995 144.85501 87.798996 144.85501 87.798996C 144.85501 87.798996 144.576 88.91599 144.158 89.614C 143.181 91.848 142.48401 93.383995 141.367 95.059C 138.85501 98.687996 135.785 100.923 133.27101 100.784C 130.75902 100.643 129.783 97.85 129.64401 96.035995C 129.64401 94.919 130.20302 92.685 130.62102 91.70799C 131.03902 90.45099 131.31802 90.03199 131.31802 90.03199C 131.31802 90.03199 129.92302 90.31099 129.08603 90.59099C 128.52702 90.73099 127.13103 90.73099 127.13103 90.73099L127.13103 90.73099L127.13103 92.40599C 126.99203 93.662994 126.71303 95.33899 125.178024 98.27099C 123.22502 101.34299 120.57302 102.59899 118.899025 102.45899C 117.08502 102.45899 114.71102 101.202995 114.43202 98.40999C 114.15302 95.33899 116.385025 89.75399 119.176025 87.93899C 120.15502 87.37999 121.13103 87.24099 121.13103 87.24099C 121.13103 86.82199 121.969025 85.14699 122.246025 85.00699C 123.08402 84.72799 126.15402 85.28599 127.13103 87.10099C 127.13103 87.10099 128.24803 86.96099 128.94502 86.82199C 130.48003 86.26299 131.87703 85.14699 133.55002 84.58799C 135.08502 84.02899 136.20201 84.02899 137.45802 84.86699C 138.43503 85.42599 138.85402 85.983986 137.45802 87.51999C 136.89902 88.07799 135.92302 89.89399 135.50502 91.70899C 134.94601 93.80299 135.22601 95.19899 135.22601 95.19899C 135.22601 95.19899 136.06401 94.77999 137.04001 93.52299C 138.57501 91.567986 139.69 89.194984 140.24901 87.37999C 140.669 85.983986 141.36601 83.33099 141.925 82.77199C 142.48401 82.21399 144.157 82.91199 145.27501 83.330986C 146.39001 83.888985 145.55402 84.72699 146.949 85.28599C 147.92601 85.56499 149.461 84.72699 150.29901 84.30799C 151.13701 83.74899 152.113 82.49299 153.23102 82.35299C 154.20802 82.21299 155.32301 82.63199 156.16101 83.05099C 156.99901 83.46899 156.99901 84.44699 156.44002 85.28499C 156.02202 86.122986 154.48701 88.63599 153.64902 89.89199C 152.81102 91.42799 152.95201 92.26599 152.95201 92.26599C 153.51102 92.12599 155.32301 91.009995 155.882 90.59099C 156.85901 89.89299 158.534 88.07699 158.534 88.07699C 159.231 85.42499 160.069 83.32999 162.163 80.956985C 163.698 79.42098 166.071 78.02499 168.442 79.00198C 170.956 79.97998 171.094 82.63198 170.118 85.00598C 169.00099 87.51898 166.071 88.49598 164.536 88.63598C 163.14 88.91498 162.442 88.63598 162.442 88.63598C 162.442 88.63598 162.163 89.05498 162.163 90.03198C 162.163 91.00899 162.302 92.96398 163.558 93.52198C 164.816 94.21998 167.466 93.94098 170.677 92.12598C 173.74701 90.45097 180.02701 84.865974 181.003 83.88798C 182.12001 82.91098 182.679 82.212975 183.097 82.212975C 183.516 82.21497 183.934 83.05297 182.957 84.86797zM112.059 100.923996C 110.944 102.182 109.686 103.576 108.012 104.834C 106.477 105.951 105.08 106.789 103.545 106.789C 101.730995 106.648 101.173996 105.393 100.895 104.414C 100.754 103.576004 101.034 101.762 101.730995 99.668C 102.56899 97.574 103.266 96.596 104.104 94.641C 104.80299 93.104996 105.5 91.709 105.639 90.871C 105.639 90.871 105.08 90.871 104.104 91.709C 103.266 92.267 101.591995 93.803 100.616 94.78C 98.104 97.294 95.590996 100.505 92.520996 105.113C 91.405 106.927 90.56699 109.020996 89.451 109.58C 87.91599 110.279 85.962 109.162 85.544 108.603004C 84.985 107.90401 84.846 106.789 85.404 105.531006C 85.962 104.27501 88.893 97.851006 89.590996 96.59501C 90.288994 95.199005 91.685 92.12701 92.103 91.29001C 92.520996 90.17301 92.800995 89.33501 92.939995 88.63701C 92.939995 88.63701 92.660995 88.77701 92.103 89.33501C 91.685 89.754005 88.753 92.267006 85.823 95.758C 78.705 103.996 73.262 114.049 72.424995 114.187004C 71.588 114.328 70.74999 114.048004 69.912994 113.490005C 68.936 113.07001 67.95899 112.51101 68.657 111.256004C 69.215 110.00001 72.284996 104.97301 73.402 102.879005C 74.658 100.645004 78.287 94.64101 79.822 91.15001C 80.798996 89.33501 81.357 88.21801 81.915 86.962006C 82.055 86.68301 83.031 84.309006 83.311005 82.91301C 83.311005 82.91301 81.357 84.03001 77.728004 87.79901C 76.89101 88.91601 72.285 93.38401 71.587006 94.22201C 70.75001 95.200005 66.842 99.80601 65.865005 101.06401C 64.88801 102.32001 62.795006 104.97201 61.120007 107.34501C 59.864006 109.02101 59.585007 109.30001 58.189007 109.30001C 57.352005 109.30001 56.933006 109.16101 56.375008 108.88201C 55.81701 108.74101 55.81701 108.183014 56.23501 107.34501C 57.49101 105.11301 59.306007 102.878006 61.53901 100.08501C 63.77201 97.15301 69.35401 90.87001 72.00601 88.21701C 74.51801 85.56501 81.07801 79.14201 83.03101 77.74601C 84.84502 76.21001 86.66001 75.23301 87.916016 74.81401C 89.31202 74.53501 89.73002 74.95401 90.14902 75.37301C 90.42802 75.65201 90.847015 75.93201 90.707016 77.04801C 90.56702 78.16402 90.14902 80.25901 88.89301 82.77201C 87.77602 85.14601 86.66001 87.93901 86.24101 88.77601L86.24101 88.77601L85.96201 89.47401C 86.93901 88.77601 89.31201 85.84401 90.986015 84.16801C 92.66102 82.493004 93.917015 81.09701 95.87102 79.700005C 97.96402 78.44301 98.94102 78.025 99.779015 78.025C 100.75601 78.025 101.73202 78.583 101.87302 79.840004C 102.01202 81.097 101.73202 82.214005 101.03502 83.61C 100.61702 84.867004 98.52302 89.055 97.96502 90.033C 97.40602 91.28999 96.98802 92.267 96.84802 92.825L96.84802 92.825L97.82602 91.987C 98.52302 91.289 101.45502 88.076996 104.10502 85.984C 106.75702 84.029 108.152016 82.912 109.82802 82.354004C 111.50202 81.796005 112.89802 81.517006 113.736015 82.354004C 114.433014 83.332 114.71301 84.588005 113.31602 87.380005C 111.92102 90.033005 110.52502 91.98701 109.68702 93.383C 108.85102 94.91901 107.45502 97.850006 107.03702 98.967C 106.47802 100.225006 106.19902 101.481 106.19902 101.481C 106.19902 101.481 107.31602 100.784004 107.734024 100.504005C 108.71102 99.80501 108.85102 99.66601 110.107025 98.828C 111.36302 97.84901 112.20103 97.293 112.759026 96.873C 113.456024 96.454 114.15402 96.594 113.87402 97.293C 113.734024 98.131 113.03503 99.527 112.05902 100.923996zM164.953 83.05299C 163.697 84.30899 163.418 85.286995 163.418 85.286995C 164.535 85.426994 165.65 84.868 166.34799 84.03C 167.047 83.332 167.327 82.354996 166.907 81.936C 166.76799 81.656 165.93 81.936 164.953 83.05299zM120.01401 92.965996C 118.61901 95.897995 119.17601 97.574 119.31701 97.574C 119.31701 97.574 120.712006 97.574 121.82901 95.618C 122.94601 93.522995 123.08501 91.569 122.66701 90.451996C 122.52501 90.034 121.270004 90.731995 120.01401 92.965996z" stroke="#000000" stroke-width="0.432" fill="none" />
    <path d="M23.856 91.43C 23.158 91.569 21.344002 89.615 20.227001 90.034C 19.250002 90.452995 19.390001 101.76199 20.227001 101.903C 18.971 102.042 9.202002 102.042 9.3410015 103.997C 9.481002 105.393005 16.180002 109.86 18.831001 111.536C 18.691002 111.397 18.133001 110.977005 17.854002 110.977005C 17.854002 110.977005 14.365002 122.70601 15.481002 123.26401C 16.737001 123.823006 24.552002 118.936005 25.390003 118.37701C 25.669003 118.09801 27.344004 116.842 27.623003 116.842C 27.205004 116.981 27.344004 117.26 26.786003 117.539C 26.926003 118.098 35.857002 123.402 36.416004 122.844C 37.253006 122.006004 33.625004 110.698 33.625004 109.442C 33.625004 109.581 33.904003 109.86 33.904003 109.86C 34.462 109.721 41.022003 102.321 39.905003 101.344C 39.347004 100.924 32.090004 100.785 31.531002 100.924C 31.391003 101.065 31.671001 101.065 31.531002 101.203C 31.391003 100.506004 25.251001 92.826004 24.832003 92.547005C 24.414003 92.407005 23.856003 91.43001 23.856003 91.43001L23.856003 91.43001L23.856 91.43z" stroke="#CC2229" stroke-width="0.068" fill="#CC2229" fill-rule="nonzero" />
    <path d="M24.135 91.569C 23.437 91.43 21.484001 90.033 20.507 90.452C 19.53 90.87 19.391 101.761 20.228 101.902C 18.972 102.041 9.900001 102.599 10.040001 103.855C 10.318001 105.25101 16.181 109.859 18.832 111.535C 18.692001 111.396 18.274 111.396 17.995 111.396C 17.995 111.396 14.785001 122.146 15.762001 122.564C 17.158 123.123 24.554 118.935005 25.392002 118.376C 25.671001 118.097 27.346003 116.840996 27.625002 116.840996C 27.207003 116.979996 27.346003 117.258995 26.788002 117.537994C 26.928001 118.09699 35.441 122.703995 36.139 122.005C 36.837 121.308 33.627 110.696 33.627 109.440994C 33.627 109.579994 33.906 109.85899 33.906 109.85899C 34.463997 109.71999 40.324997 102.31999 39.07 101.342995C 38.512 100.923 32.092 100.784 31.534 100.923C 31.394001 101.063995 31.674 101.063995 31.534 101.201996C 31.394001 100.505 25.254 92.825 24.835001 92.546C 24.417002 92.406 24.556002 91.987 23.998001 92.406C 23.998001 92.127 23.858002 92.127 23.858002 91.848C 23.579002 91.848 23.579002 91.988 23.439001 91.848C 23.439001 91.709 24.974 90.451996 25.393002 90.731C 25.533 90.87 25.253002 91.29 24.974 91.149C 24.834002 91.429 24.974 91.289 24.974 91.429C 25.393002 91.429 25.672 91.289 25.672 91.568C 25.812 91.568 24.695002 92.127 24.695002 92.127C 26.230001 93.382996 30.556002 98.968 30.556002 98.968L30.556002 98.968L31.673002 100.644005C 31.952002 100.644005 41.024002 100.08501 41.024002 101.064C 41.024002 103.296005 33.767002 110.418 34.185 110.976006C 34.464 111.535 38.093002 123.26301 36.837 123.68101C 35.301003 124.240005 26.649002 117.81801 26.509003 117.95601C 26.230003 118.23501 16.461002 124.79801 14.786003 123.68101C 13.530003 122.98401 16.740004 113.21001 17.578003 111.39601C 17.718002 111.25501 8.506003 105.67101 8.506003 103.85501C 8.646004 102.738014 16.740004 101.76101 17.717003 101.76101C 18.135002 101.76101 19.392002 101.76101 19.392002 101.48201C 19.252003 101.20301 18.275002 89.89401 19.392002 89.475006C 21.483002 88.91701 22.879002 90.87101 24.135002 91.56901L24.135002 91.56901L24.135 91.569z" stroke="none" fill="#000000" fill-rule="nonzero" />
    <path d="M24.135 91.569C 23.437 91.43 21.484001 90.033 20.507 90.452C 19.53 90.87 19.391 101.761 20.228 101.902C 18.972 102.041 9.900001 102.599 10.040001 103.855C 10.318001 105.25101 16.181 109.859 18.832 111.535C 18.692001 111.396 18.274 111.396 17.995 111.396C 17.995 111.396 14.785001 122.146 15.762001 122.564C 17.158 123.123 24.554 118.935005 25.392002 118.376C 25.671001 118.097 27.346003 116.840996 27.625002 116.840996C 27.207003 116.979996 27.346003 117.258995 26.788002 117.537994C 26.928001 118.09699 35.441 122.703995 36.139 122.005C 36.837 121.308 33.627 110.696 33.627 109.440994C 33.627 109.579994 33.906 109.85899 33.906 109.85899C 34.463997 109.71999 40.324997 102.31999 39.07 101.342995C 38.512 100.923 32.092 100.784 31.534 100.923C 31.394001 101.063995 31.674 101.063995 31.534 101.201996C 31.394001 100.505 25.254 92.825 24.835001 92.546C 24.417002 92.406 24.556002 91.987 23.998001 92.406C 23.998001 92.127 23.858002 92.127 23.858002 91.848C 23.579002 91.848 23.579002 91.988 23.439001 91.848C 23.439001 91.709 24.974 90.451996 25.393002 90.731C 25.533 90.87 25.253002 91.29 24.974 91.149L24.974 91.149L24.974 91.429C 25.393002 91.429 25.672 91.289 25.672 91.568C 25.812 91.568 24.695002 92.127 24.695002 92.127C 26.230001 93.382996 30.556002 98.968 30.556002 98.968L30.556002 98.968L31.673002 100.644005C 31.952002 100.644005 41.024002 100.08501 41.024002 101.064C 41.024002 103.296005 33.767002 110.418 34.185 110.976006C 34.464 111.535 38.093002 123.26301 36.837 123.68101C 35.301003 124.240005 26.649002 117.81801 26.509003 117.95601C 26.230003 118.23501 16.461002 124.79801 14.786003 123.68101C 13.530003 122.98401 16.740004 113.21001 17.578003 111.39601C 17.718002 111.25501 8.506003 105.67101 8.506003 103.85501C 8.646004 102.738014 16.740004 101.76101 17.717003 101.76101C 18.135002 101.76101 19.392002 101.76101 19.392002 101.48201C 19.252003 101.20301 18.275002 89.89401 19.392002 89.475006C 21.483002 88.91701 22.879002 90.87101 24.135002 91.56901" stroke="#000000" stroke-width="0.068" fill="none" />
    <path d="M21.623 91.849C 21.901999 92.128 21.064999 92.128 21.064999 92.407C 21.343998 92.407 21.623 92.268 21.901999 92.407L21.901999 92.407L21.901999 92.547C 21.064999 92.826 20.505999 93.523994 20.366999 93.244995L20.366999 93.244995L20.366999 92.826C 19.808998 92.407 20.925 91.42999 21.623 91.849z" stroke="none" fill="#000000" fill-rule="nonzero" />
    <path d="M21.623 91.849C 21.901999 92.128 21.064999 92.128 21.064999 92.407C 21.343998 92.407 21.623 92.268 21.901999 92.407L21.901999 92.407L21.901999 92.547C 21.064999 92.826 20.505999 93.523994 20.366999 93.244995L20.366999 93.244995L20.366999 92.826C 19.808998 92.407 20.925 91.42999 21.623 91.849z" stroke="#000000" stroke-width="0.068" fill="none" />
    <path d="M30.555 101.623C 29.997 101.623 29.439001 101.902 28.741001 101.623C 29.02 101.482 29.857 100.785 30.137001 101.064C 30.416 101.203 30.416 101.482 30.555 101.623z" stroke="#000000" stroke-width="0.068" fill="#000000" fill-rule="nonzero" />
    <path d="M23.577 102.459C 23.157999 102.459 22.879 102.6 22.74 102.738C 23.717 103.854996 25.811 105.392 26.927 105.392C 28.602 105.392 29.439 102.878 29.858 101.622C 29.858 101.901 29.021 104.274 28.602 104.833C 28.462 105.112 27.625 105.671 27.067 105.671C 26.09 105.671 25.671 105.392 25.112999 104.972C 23.856998 104.275 23.578 103.716 22.600998 102.738C 22.181997 103.017 21.762999 103.158 21.622997 103.576C 20.645998 103.158 20.785997 102.738 21.622997 102.32C 22.320997 102.041 23.157997 101.902 23.576998 102.459L23.576998 102.459L23.577 102.459z" stroke="#000000" stroke-width="0.068" fill="#000000" fill-rule="nonzero" />
    <path d="M25.81 98.551C 25.390999 97.434006 24.414 96.037 24.414 96.037C 24.553 95.619 24.831999 95.339005 25.112 95.200005C 26.088999 94.921005 27.345 96.177 28.043 97.852005C 28.741 99.66801 28.462 101.204 27.484999 101.483C 27.067 101.624 26.508 101.344 26.088999 100.924C 26.088999 100.924 26.228998 99.389 25.81 98.551z" stroke="#000000" stroke-width="0.131" fill="#FFFFFF" fill-rule="nonzero" />
    <path d="M25.251 99.807C 25.251 98.969 25.81 98.551 26.507 98.551C 27.205 98.551 27.763 99.11 27.763 99.807C 27.763 100.506 27.205 101.203 26.507 101.203C 26.089 101.203 25.251 99.807 25.251 99.807z" stroke="#000000" stroke-width="0.131" fill="#000000" fill-rule="nonzero" />
    <path d="M26.368 98.83C 26.368 98.551 26.647 98.41 26.787 98.41C 27.066 98.41 27.206001 98.551 27.206001 98.83C 27.206001 99.109 27.066002 99.389 26.787 99.389C 26.647001 99.389 26.368 99.109 26.368 98.83z" stroke="#FFFFFF" stroke-width="0.131" fill="#FFFFFF" fill-rule="nonzero" />
    <path d="M22.321 99.109C 21.762 97.433 21.901999 95.758 22.879 95.479004C 23.855999 95.339005 25.112 96.456 25.81 98.131004C 26.507 99.94701 26.227999 101.483 25.251 101.762C 24.274 102.041 23.019 100.924 22.321 99.109z" stroke="#000000" stroke-width="0.131" fill="#FFFFFF" fill-rule="nonzero" />
    <path d="M22.739 99.947C 22.739 99.248 23.297 98.688995 23.995 98.688995C 24.693 98.688995 25.251001 99.24799 25.251001 99.947C 25.251001 100.644 24.693 101.343 23.995 101.343C 23.716002 101.344 22.739 99.947 22.739 99.947z" stroke="#000000" stroke-width="0.131" fill="#000000" fill-rule="nonzero" />
    <path d="M23.856 98.969C 23.856 98.83 24.135 98.551 24.414001 98.551C 24.553001 98.551 24.832 98.83 24.832 98.969C 24.832 99.248 24.553001 99.528 24.414001 99.528C 24.135002 99.527 23.856 99.248 23.856 98.969z" stroke="#FFFFFF" stroke-width="0.131" fill="#FFFFFF" fill-rule="nonzero" />
</g>
</svg>